<svg version="1" xmlns="http://www.w3.org/2000/svg" width="560" height="560" viewBox="0 0 420.000000 420.000000"><path d="M147.2 50.4c-21.3 4.1-38.3 12.5-53.2 26.2-6.7 6.3-16.2 18.4-20 25.6-2.7 5.2-3 5.3-11.6 2.2-3.9-1.4-4.5-2.1-9.3-12-8.3-17.2-23.3-37.4-30.3-41-3.5-1.8-7.5-1.2-8.1 1.4-.2.9.4 3 1.4 4.7 4.6 7.9 12.4 32.1 16.4 50.6 1 4.8 2.7 9.4 4.7 12.3 3.5 5.4 11.5 11.4 19.1 14.5l5.2 2.1-.3 115-.3 115H110v-93.5l6.7-3.5c11.1-5.8 16.3-11.4 16.3-17.6 0-2.3.3-2.6 2.8-2.1 1.5.2 7 1.2 12.2 2.2 7 1.3 12.3 1.6 20.5 1.2 40.3-2 75-26.6 90.2-63.7 5.8-14.3 6.8-19.8 6.8-39.1v-17.6l4.3-2.9c5-3.3 10.4-10.3 12-15.4.6-1.9 2-7.6 3.1-12.5 2.6-12.2 8.5-30.4 12.7-39.3 4.1-8.5 3.9-11.2-.9-11.2-6.7 0-23.4 20.9-33.8 42.2-2.8 6-5.7 10.8-6.4 10.8-.7 0-2.9-2.8-4.9-6.3-13-22.1-36.5-39.7-62.1-46.3-12.4-3.2-31.2-4.1-42.3-2zM285 78c-2.1 6.3-5 16.9-6.5 23.4-3.2 14.4-4 16-10.5 21.9-11.4 10.3-36.4 15.7-72 15.7h-14.8l-1.2-3.6c-1.2-3.6-.8-10.1 1.1-16.2l1.1-3.2h27.3c30.2 0 40.4-1 48.2-4.5 5-2.3 5.4-2.7 9.6-11.7 2.4-5.2 6.1-12.1 8.1-15.3 3.6-5.7 12.9-18.5 13.2-18.2.1.1-1.5 5.4-3.6 11.7zm-247.9.3c3.3 5 8.2 13.7 11 19.3 5.3 11.2 6.7 12.5 15.9 14.9 3 .8 4.4 1.7 4.1 2.6-2.9 10.4-4.1 14.3-4.5 14.6-.7.8-11.2-4.3-15.1-7.2-5.5-4.3-7.3-8.2-11.9-26.7-2.5-9.5-5.4-19.9-6.5-23.2-2.7-7.6-1-6.3 7 5.7zm79.8 76.6c2.2 4.2 3.7 5.1 8.2 5.1 3.7 0 3.7.9-.1 4.5-2.8 2.7-3 3.3-2.4 7.7.4 2.6.4 4.8 0 4.8s-2.4-.9-4.4-1.9c-3.6-1.9-3.8-1.9-7.2 0-1.9 1-3.9 1.8-4.3 1.9-.4 0-.5-2.1-.1-4.8.5-4.3.3-4.9-2.5-7.6-3.9-3.7-3.9-4.6-.2-4.6 4.5 0 6-.9 8.2-5.1 1.1-2.2 2.1-3.9 2.4-3.9.3 0 1.3 1.7 2.4 3.9zm6.1 88c3.3 2.4 4.7 7.9 3 12.1-1.5 3.6-10.2 9.2-21.9 14-10.1 4.1-10.7 4-7.1-1.9 1.7-2.7 5.1-9.2 7.6-14.5 3.7-8 5-10 7.7-11.1 3.7-1.7 7.1-1.2 10.7 1.4z"/><path d="M290.3 125.7c2.8 12.1 2.9 38.1.3 50.3-5.4 25.1-15.9 45.4-32.8 63.4-24.3 26.1-57.5 40.6-93 40.9l-11.8.1V369h53.5l.3-4.8c.4-6.4 5-15.8 10.3-21 9.4-9.2 21.3-12.1 34-8.2 6.3 1.9 8.1 3 13.4 8.3 6.8 6.8 10.5 14.5 10.5 21.7v4h53V117h-39.7l2 8.7zM348 133.6v15.9l4.5 2.8c5.6 3.6 13.2 11.9 16.7 18.3 5.5 10.2 7.4 25.8 4.4 36.9-3 11.3-10.8 22.6-19.9 28.9l-5.7 3.9v15.4c0 8.4.4 15.3.9 15.3 2.2 0 10.3-3.5 16.4-7.1 17.9-10.6 31.3-28.8 36.9-49.8 2.8-10.6 2.7-27.7-.1-38.6-6.6-25.1-24.5-45.9-47.1-54.9-2.5-1-5.1-2-5.7-2.3-1-.4-1.3 3.1-1.3 15.3z"/></svg>