<?xml version="1.0" standalone="no"?>
<!DOCTYPE svg PUBLIC "-//W3C//DTD SVG 20010904//EN"
 "http://www.w3.org/TR/2001/REC-SVG-20010904/DTD/svg10.dtd">
<svg version="1.0" xmlns="http://www.w3.org/2000/svg"
 width="16.000000pt" height="16.000000pt" viewBox="0 0 16.000000 16.000000"
 preserveAspectRatio="xMidYMid meet">
<metadata>
Created by potrace 1.11, written by Peter Selinger 2001-2013
</metadata>
<g transform="translate(0.000000,16.000000) scale(0.000800,-0.000800)"
fill="#000000" stroke="none">
<path d="M5510 18953 c-1 -1873 -12 -4090 -25 -4857 -8 -461 -15 -1232 -15
-1712 l0 -873 -2689 -3 c-2632 -3 -2689 -3 -2710 -22 -20 -18 -20 -20 -5 -37
22 -24 22 -82 1 -103 -9 -10 -17 -27 -17 -39 0 -44 73 -134 127 -156 18 -7 36
-25 43 -42 18 -42 57 -71 80 -59 10 6 29 10 41 10 29 0 109 -47 109 -64 0 -7
9 -21 20 -31 22 -20 120 -213 120 -238 0 -9 13 -26 29 -38 26 -19 40 -45 72
-126 4 -12 21 -30 36 -40 15 -9 43 -30 61 -45 18 -15 40 -28 48 -28 8 0 30
-11 48 -25 23 -18 45 -25 76 -25 63 0 126 -40 140 -88 13 -47 19 -55 52 -69
16 -7 28 -17 28 -23 0 -5 8 -10 18 -10 10 0 43 -36 82 -91 99 -137 100 -139
119 -139 10 0 28 -12 42 -26 13 -14 45 -35 71 -46 67 -29 131 -100 153 -172
18 -56 62 -106 94 -106 6 0 21 -15 32 -34 11 -18 46 -53 79 -77 60 -44 64 -49
61 -82 -1 -9 6 -20 16 -23 49 -15 113 -49 118 -62 3 -8 12 -12 22 -8 10 4 25
-2 39 -15 20 -19 27 -20 54 -10 28 9 33 8 37 -9 3 -11 13 -20 23 -20 10 0 20
-7 24 -15 3 -8 12 -15 20 -15 7 0 16 -6 19 -14 3 -7 18 -16 34 -19 19 -4 34
-17 47 -41 11 -20 25 -36 32 -36 7 0 18 -8 23 -19 6 -11 27 -21 52 -25 47 -7
68 -28 69 -66 1 -36 12 -49 66 -79 43 -23 52 -34 78 -96 18 -44 32 -100 37
-150 14 -141 18 -154 49 -170 20 -10 27 -20 23 -34 -3 -13 9 -33 40 -65 25
-25 48 -59 52 -75 3 -17 14 -33 24 -36 55 -17 81 -105 75 -250 -3 -55 -6 -116
-6 -135 -1 -19 4 -62 11 -95 7 -33 12 -75 12 -93 -1 -24 12 -52 49 -104 32
-45 48 -78 45 -89 -3 -10 0 -21 7 -26 38 -24 108 -176 108 -234 0 -15 6 -32
14 -38 8 -6 19 -24 25 -39 6 -15 24 -33 40 -40 15 -7 61 -46 101 -88 76 -78
131 -114 174 -114 41 0 116 -41 116 -63 0 -13 5 -17 15 -13 11 4 15 -2 15 -21
0 -24 36 -76 90 -129 54 -52 199 -150 241 -163 24 -7 62 -19 84 -26 22 -7 60
-13 85 -14 24 -1 49 -6 54 -11 6 -6 18 -10 28 -10 33 0 78 -41 78 -71 0 -22 4
-26 19 -22 13 3 24 -4 37 -26 13 -21 33 -36 65 -46 26 -9 53 -23 60 -32 9 -10
23 -13 46 -10 18 3 35 1 38 -4 4 -5 21 -9 38 -9 18 -1 42 -6 53 -13 27 -15
114 -111 114 -126 0 -6 6 -11 13 -11 8 0 24 -12 38 -26 39 -42 139 -73 139
-44 0 19 18 10 23 -11 3 -12 10 -18 16 -14 6 3 11 -1 11 -9 0 -9 9 -16 20 -16
13 0 20 -7 20 -19 0 -24 16 -36 23 -17 7 16 99 10 138 -10 31 -15 99 0 99 23
0 8 7 25 16 38 9 14 14 34 11 45 -3 10 2 25 10 31 8 7 21 25 29 40 7 15 22 30
31 33 16 6 31 27 93 133 13 22 24 30 37 27 10 -3 40 9 66 26 26 16 54 30 62
30 7 0 17 10 21 22 5 17 0 28 -24 49 -28 26 -29 29 -16 54 8 15 14 37 14 48 0
34 23 87 40 92 9 3 29 24 44 47 22 34 26 46 17 60 -16 25 -14 49 8 92 11 20
19 51 19 67 -1 17 8 39 20 52 12 13 22 33 22 45 0 11 4 24 10 27 5 3 10 15 10
25 0 13 5 17 15 14 15 -6 20 9 17 49 -1 10 11 35 27 55 16 20 36 60 45 89 17
52 29 63 70 63 12 0 44 11 72 24 27 13 51 20 52 15 10 -26 85 7 79 33 -6 20
10 20 120 -4 66 -14 80 -8 89 39 12 67 35 112 64 127 37 18 114 10 136 -15 10
-11 31 -19 51 -19 23 0 33 -5 33 -15 0 -24 99 -82 152 -90 36 -4 53 -2 73 11
16 10 36 14 54 11 16 -3 33 -1 40 6 9 9 14 9 20 -2 5 -8 16 -11 25 -8 10 4 16
1 16 -8 0 -16 16 -20 24 -6 8 13 97 20 125 10 17 -7 27 -6 32 2 4 8 9 4 14
-10 7 -23 13 -25 33 -12 9 5 33 -1 65 -16 37 -18 62 -24 88 -20 21 3 42 0 48
-6 7 -7 16 -6 29 6 11 10 35 17 60 17 38 0 42 3 42 24 0 35 28 42 36 8 3 -15
7 -33 10 -39 6 -20 49 -15 69 7 25 28 38 25 54 -11 11 -26 17 -30 38 -24 14 3
22 2 19 -3 -3 -6 1 -15 9 -22 8 -7 15 -20 15 -30 0 -9 9 -25 20 -35 11 -10 20
-26 20 -35 0 -22 15 -34 63 -50 l39 -12 -7 -57 c-6 -49 -4 -59 13 -75 20 -17
21 -17 30 1 5 10 12 35 16 56 4 23 11 35 18 31 7 -5 9 -37 5 -100 l-6 -93 57
-3 c54 -3 58 -5 81 -41 15 -22 32 -37 44 -37 64 0 147 -56 147 -99 0 -7 9 -24
20 -38 11 -14 20 -31 20 -38 0 -14 63 -55 83 -55 7 0 48 -34 92 -76 44 -42 96
-84 116 -95 48 -24 83 -80 75 -119 -4 -24 1 -37 26 -65 17 -20 50 -47 73 -60
43 -26 65 -59 65 -98 0 -12 7 -55 15 -96 9 -41 13 -81 10 -90 -3 -8 0 -34 6
-57 9 -30 22 -46 46 -59 18 -10 33 -26 33 -35 0 -9 7 -25 15 -36 8 -10 15 -28
15 -40 0 -11 14 -30 30 -42 25 -19 30 -30 30 -62 0 -27 7 -47 20 -60 15 -15
20 -33 20 -78 0 -66 15 -93 60 -112 21 -9 30 -19 30 -36 0 -13 15 -37 34 -56
26 -26 33 -39 29 -59 -7 -40 21 -85 62 -99 40 -13 43 -22 15 -41 -20 -14 -20
-14 5 -49 22 -31 23 -39 14 -71 -11 -34 -9 -41 34 -111 29 -47 48 -93 53 -124
5 -36 16 -58 40 -81 17 -18 39 -33 47 -33 9 0 17 -13 21 -33 4 -23 14 -36 34
-44 15 -7 34 -16 42 -21 8 -5 40 -21 70 -34 48 -22 59 -33 83 -82 16 -31 37
-61 47 -66 11 -6 22 -26 26 -48 10 -55 32 -91 62 -104 39 -17 61 -38 56 -53
-7 -17 12 -54 43 -83 17 -15 23 -28 18 -40 -12 -27 -8 -50 14 -78 12 -15 21
-41 21 -59 0 -39 60 -108 82 -94 9 6 16 -1 24 -24 7 -21 18 -33 32 -35 12 -2
22 -7 22 -11 0 -4 20 -35 45 -69 34 -46 51 -62 69 -62 37 0 56 -10 56 -31 0
-22 26 -25 65 -7 22 10 27 9 40 -8 8 -10 15 -27 15 -37 0 -14 4 -16 18 -8 15
8 23 3 45 -24 26 -32 27 -38 21 -104 l-7 -69 29 -4 c26 -3 29 -6 27 -38 -2
-19 -3 -57 -3 -84 0 -57 -27 -156 -48 -173 -19 -16 -6 -53 18 -53 21 0 40 -28
40 -59 0 -16 6 -21 24 -21 29 0 36 -8 40 -52 2 -18 8 -47 14 -64 5 -17 6 -37
2 -43 -4 -7 -5 -43 -2 -80 3 -50 0 -75 -12 -99 -14 -27 -15 -40 -6 -73 9 -32
15 -39 30 -34 13 4 20 0 24 -13 4 -11 15 -27 26 -37 15 -14 17 -20 7 -36 -15
-24 -2 -46 41 -69 53 -29 62 -40 62 -81 0 -31 4 -39 18 -39 22 0 62 -40 62
-61 0 -8 9 -29 20 -47 11 -18 20 -50 20 -72 0 -31 5 -43 24 -55 19 -13 24 -26
28 -80 4 -39 13 -76 26 -97 14 -22 23 -60 28 -110 7 -76 7 -76 44 -93 38 -17
70 -59 70 -92 0 -10 -7 -31 -15 -47 -14 -27 -14 -31 10 -62 28 -37 41 -40 78
-23 19 8 30 8 48 -2 13 -7 39 -12 57 -10 27 2 32 -1 32 -18 0 -16 6 -21 25
-21 14 0 25 5 25 11 0 7 9 0 21 -15 17 -21 29 -26 68 -26 26 0 52 5 58 11 18
18 40 3 48 -30 5 -23 14 -33 33 -37 48 -10 52 -13 52 -38 0 -17 8 -27 28 -34
15 -6 21 -11 15 -11 -23 -2 -14 -18 16 -31 16 -6 31 -20 34 -31 6 -23 49 -26
67 -4 21 26 76 19 101 -13 12 -15 23 -22 26 -15 5 13 47 -5 66 -30 7 -8 23
-18 36 -22 20 -6 23 -5 17 11 -7 19 10 35 31 27 7 -3 13 -12 13 -20 0 -18 87
-97 109 -99 9 -1 24 -2 34 -3 9 -1 17 -9 17 -18 1 -19 15 -40 43 -62 14 -11
20 -11 34 0 12 10 15 10 9 1 -11 -18 42 -69 80 -76 17 -4 38 -13 44 -22 11
-13 15 -13 31 2 11 10 19 12 19 6 0 -8 22 -11 69 -8 58 2 68 1 64 -13 -3 -13
4 -16 34 -16 25 0 39 5 41 15 2 12 21 15 95 14 50 0 107 4 125 10 28 9 35 8
43 -6 7 -12 18 -15 48 -11 32 4 41 1 54 -17 8 -12 20 -19 26 -15 6 3 11 2 11
-3 0 -6 32 -9 75 -8 61 2 75 0 70 -11 -3 -10 1 -13 15 -8 14 5 20 2 20 -9 0
-9 5 -16 10 -16 6 0 10 -8 10 -17 1 -10 18 -31 40 -48 27 -21 37 -36 34 -47
-4 -14 1 -18 24 -18 33 0 50 -15 61 -57 5 -19 13 -27 25 -25 9 2 24 -4 32 -13
9 -9 24 -13 35 -10 13 4 22 -2 33 -24 11 -20 21 -28 34 -24 10 2 24 -3 31 -11
21 -26 40 -19 57 22 12 28 13 44 6 65 -13 34 8 51 85 68 29 7 53 18 53 24 0
13 65 25 140 25 33 0 50 5 54 15 3 10 19 15 46 15 l41 0 -3 108 c-2 59 -9 121
-15 137 -7 17 -17 81 -23 144 -18 185 -114 620 -175 794 -107 302 -155 660
-126 950 14 144 73 378 135 539 116 301 242 542 322 615 37 35 49 55 64 109
35 121 203 318 448 524 125 105 214 165 347 235 61 32 115 64 120 73 6 8 22
35 36 60 14 25 33 49 42 54 9 4 25 12 35 16 9 5 27 23 39 41 38 56 124 108
462 280 179 92 407 218 505 279 99 62 183 112 188 112 5 0 35 17 66 38 31 22
74 42 94 45 58 9 108 37 137 77 14 20 48 52 74 70 56 39 227 221 251 267 9 18
16 39 16 47 0 10 31 32 78 55 43 22 102 59 132 83 30 24 98 71 150 103 52 32
118 80 145 107 44 41 56 48 91 48 44 0 60 12 88 67 20 40 20 60 0 98 -14 28
-14 30 7 46 43 32 716 349 857 403 30 11 75 16 153 16 104 0 113 -2 141 -25
36 -30 92 -35 85 -7 -3 9 -11 48 -17 85 -10 56 -23 85 -72 158 -32 49 -63 89
-68 89 -24 0 -8 51 23 77 75 64 113 110 126 153 32 108 43 130 82 161 21 17
39 36 39 43 0 7 13 25 30 41 28 27 29 30 13 47 -15 17 -15 21 7 68 l23 49 -22
68 c-18 55 -20 74 -12 97 6 15 11 45 11 66 0 32 -7 46 -40 79 -38 38 -40 41
-34 88 3 26 15 60 25 75 10 15 19 34 19 43 0 9 9 15 21 15 19 0 20 4 15 33 -3
17 -9 52 -11 77 -3 24 -12 55 -21 68 -23 35 -9 79 32 104 29 17 34 26 33 52
-3 48 8 72 50 99 32 22 41 34 51 79 6 29 29 90 51 135 42 87 45 103 28 151 -9
27 -7 35 20 73 40 54 39 75 -5 115 -20 19 -34 39 -32 45 2 6 19 17 38 23 30 9
35 16 38 45 5 50 -5 81 -27 81 -25 0 -32 21 -14 42 8 9 16 41 18 72 l3 56 -43
0 c-48 0 -70 18 -60 49 3 11 8 51 9 89 l4 69 -42 19 c-58 27 -58 50 0 116 l48
53 -45 3 c-37 2 -47 8 -62 33 -13 24 -14 35 -6 51 6 11 9 21 7 22 -2 1 -19 12
-39 24 l-36 22 23 46 c26 51 24 64 -8 64 -26 0 -99 21 -115 32 -6 5 -20 27
-31 49 -17 33 -18 41 -6 46 9 3 14 21 14 54 0 26 5 59 11 73 9 20 8 35 -6 73
-15 42 -19 60 -24 117 0 8 -17 33 -36 56 -25 30 -36 55 -41 91 -4 31 -11 49
-20 49 -7 0 -21 11 -30 25 -9 14 -23 25 -30 25 -8 0 -14 5 -14 10 0 6 -15 18
-34 27 -22 10 -40 29 -52 55 -9 21 -29 51 -43 66 l-26 27 -10 1415 c-11 1376
-11 1416 -30 1448 -13 20 -26 31 -35 28 -96 -32 -98 -32 -129 -2 -29 28 -31
28 -55 12 -33 -21 -34 -21 -28 10 l5 26 -39 -20 c-22 -10 -63 -27 -91 -36 -29
-10 -53 -22 -53 -27 0 -6 -10 -9 -22 -7 -18 2 -22 8 -20 27 3 21 1 23 -21 17
-14 -3 -31 -8 -39 -11 -7 -2 -24 5 -37 16 l-25 20 27 55 c15 30 25 54 23 54
-1 0 -29 -9 -61 -20 -32 -11 -77 -20 -99 -20 l-41 1 40 35 39 35 -101 -5 -101
-5 8 29 c10 34 7 35 -52 21 -21 -5 -38 -5 -38 -1 0 5 -18 11 -39 15 -29 5 -38
11 -34 21 4 10 -3 14 -26 14 l-32 0 16 30 c17 32 11 36 -29 21 -27 -11 -85 1
-96 20 -4 6 -27 11 -51 12 -36 2 -44 5 -45 22 -1 11 -2 26 -3 32 0 7 -19 25
-41 39 -24 16 -43 38 -47 53 -9 40 -12 42 -45 25 -44 -23 -74 -12 -82 31 -4
21 -13 35 -22 35 -13 0 -12 4 1 31 20 38 15 45 -21 26 -31 -16 -78 -7 -168 32
-57 25 -97 18 -137 -25 l-24 -26 -33 39 -34 38 7 -59 c4 -33 9 -64 11 -70 3
-7 -19 -20 -50 -30 -68 -23 -132 -17 -156 14 -14 19 -20 21 -38 11 -20 -11
-22 -9 -22 13 0 31 -14 40 -30 21 -17 -21 -29 -19 -39 8 -5 13 -28 30 -59 43
l-50 22 -33 -34 c-18 -19 -39 -34 -47 -34 -8 0 -27 -9 -43 -20 -25 -18 -33
-20 -69 -10 -38 10 -43 9 -60 -13 -10 -13 -41 -35 -68 -49 l-49 -25 -64 38
c-35 22 -70 39 -76 39 -7 0 -19 -13 -28 -30 -17 -34 -19 -34 -46 -19 -15 7
-24 7 -33 0 -8 -6 -20 -9 -28 -6 -8 3 -22 -3 -31 -13 -14 -15 -25 -17 -69 -12
-29 4 -55 4 -58 0 -3 -4 -17 -10 -32 -13 -15 -4 -30 -16 -33 -27 -3 -11 -10
-20 -15 -20 -5 0 -10 -21 -12 -46 -4 -65 -23 -75 -86 -45 -48 23 -51 23 -80 6
-29 -17 -52 -67 -52 -111 0 -20 -31 11 -92 94 -32 43 -33 44 -88 40 -49 -3
-55 -1 -58 17 -2 12 -13 33 -25 49 -20 25 -25 26 -51 16 -41 -15 -60 4 -47 46
5 16 12 41 15 57 6 26 5 27 -38 27 -26 0 -66 10 -97 25 -29 13 -55 22 -57 20
-2 -2 -12 -36 -23 -76 -25 -96 -50 -114 -82 -59 -25 41 -49 52 -110 48 l-51
-3 -8 55 c-7 43 -16 62 -42 89 l-34 34 -30 -22 c-37 -26 -50 -26 -82 -1 -14
11 -28 20 -32 20 -10 0 -9 -119 1 -145 6 -14 2 -29 -12 -48 l-20 -29 -21 27
-21 27 -55 -58 c-38 -40 -50 -59 -40 -62 12 -2 15 -19 15 -79 0 -78 -8 -94
-36 -71 -17 13 -49 88 -49 112 0 8 11 17 25 20 30 8 33 36 9 117 -18 61 -54
98 -97 99 -36 0 -87 -35 -87 -61 0 -27 -12 -24 -45 11 -16 17 -32 30 -36 30
-4 0 -10 -18 -14 -40 -5 -28 -12 -40 -24 -40 -10 0 -22 -14 -30 -35 -8 -23
-21 -37 -37 -41 -43 -11 -54 0 -48 49 8 55 -13 90 -69 119 -34 17 -44 18 -66
8 -14 -7 -39 -16 -54 -21 -29 -8 -29 -8 -22 30 6 36 4 41 -32 70 -86 71 -174
73 -207 5 -12 -25 -28 -40 -56 -51 -22 -9 -40 -22 -40 -30 0 -7 -11 -13 -25
-13 -22 0 -25 -3 -19 -24 4 -18 -2 -29 -26 -50 -38 -32 -53 -32 -108 -4 l-44
23 6 91 c5 90 4 92 -23 118 -29 27 -29 28 -75 12 -54 -18 -75 -20 -96 -6 -13
9 -12 12 5 25 19 15 18 16 -17 45 l-37 31 21 35 c19 33 20 37 5 72 -9 20 -19
49 -24 64 l-8 28 -50 -24 c-27 -12 -56 -30 -64 -39 -16 -21 -40 -21 -65 -2
-13 10 -32 12 -61 8 -33 -4 -49 -1 -71 15 -16 11 -50 23 -75 26 -41 5 -49 2
-72 -22 -14 -15 -33 -44 -44 -65 -20 -43 -62 -73 -86 -64 -9 3 -33 28 -54 54
-61 79 -84 93 -157 100 -54 5 -69 3 -93 -14 -47 -33 -95 -35 -153 -6 -35 17
-61 24 -83 20 -26 -4 -40 2 -73 29 -23 18 -53 36 -68 40 -14 3 -35 17 -45 30
l-19 24 -44 -20 c-34 -15 -56 -18 -101 -13 -31 3 -57 9 -57 12 0 3 -4 12 -9
20 -7 11 -15 10 -44 -8 l-36 -22 -6 38 c-3 21 -10 48 -15 60 -5 12 -6 37 -3
57 8 48 -3 86 -25 86 -22 0 -72 63 -72 91 0 20 -4 21 -61 17 l-61 -4 -25 38
c-41 61 -83 44 -83 -34 -1 -37 -29 -78 -55 -78 -9 0 -34 14 -56 32 -28 22 -55
34 -92 38 -65 9 -74 5 -92 -36 l-14 -34 -73 6 c-63 6 -77 11 -103 36 -16 16
-52 51 -80 78 -27 26 -79 82 -115 124 -95 111 -169 155 -186 111 -4 -8 -15
-15 -25 -15 -19 0 -19 40 -19 1760 l0 1760 -207 1 c-115 0 -1154 2 -2310 5
l-2103 5 0 -748z"/>
</g>
</svg>
