<?xml version="1.0" encoding="utf-8"?>
<!-- Generator: Adobe Illustrator 21.0.1, SVG Export Plug-In . SVG Version: 6.00 Build 0)  -->
<svg version="1.1" xmlns="http://www.w3.org/2000/svg" xmlns:xlink="http://www.w3.org/1999/xlink" x="0px" y="0px"
	 viewBox="0 0 600 600" style="enable-background:new 0 0 600 600;" xml:space="preserve">
<style type="text/css">
	.st0{fill:#00266A;}
	.st1{fill:#B41F30;}
	.st2{fill:#FFFFFF;}
</style>
<g id="Layer_2">
</g>
<g id="Layer_1">
</g>
<g id="Layer_3">
	<g>
		<path class="st0" d="M384.4,54.7c-1.2-0.1-2.1,0.2-2.5,0.4l-0.2,0.1c-0.4,0.2-0.7,0.4-1.1,0.6c-0.5,0.3-1,0.6-1.5,1
			c-0.9,0.6-1.6,1.3-2.3,2c-1.5,1.3-2.8,2.7-4,4c-2.5,2.7-4.9,5.6-7,8.4c-4.2,5.5-8.2,11.6-11.9,18.2c-1.9,3.3-3.5,6.7-5.1,9.8
			c-0.7,1.6-1.5,3.3-2.3,5.1l-1,2.4c0,0,0,0-0.1,0.1c-0.6,0.6-1.5,1.1-2.8,1.8C325.7,75.1,291,52,250.9,52
			c-40.6,0-75.6,23.6-92.2,57.7c-1.8-0.3-3.5-0.5-5-0.9c-1.8-0.4-4.5-1.1-6.2-1.9c-1.3-0.6-2.2-1.2-2.8-1.7c0,0,0,0,0,0l-1-2.4
			c-0.7-1.8-1.6-3.6-2.3-5.2c-1.5-3.2-3.2-6.6-5-9.8c-3.7-6.6-7.7-12.7-11.9-18.2c-2.2-2.9-4.5-5.7-7.1-8.5c-1.2-1.3-2.6-2.7-4-4
			c-0.7-0.6-1.5-1.3-2.4-2c-0.5-0.3-1-0.7-1.5-1c-0.3-0.2-0.7-0.4-1.1-0.6l-0.2-0.1c-0.4-0.2-1.3-0.5-2.5-0.4
			c-1.2,0.1-2.3,0.6-3.1,1.5c-0.8,0.9-1.2,2-1.1,3.2c0.1,1.7,0.9,2.8,1.9,3.4c0.1,0.2,0.2,0.3,0.3,0.5c0.4,0.6,0.7,1.3,1,1.9
			c0.8,1.7,1.4,3.1,1.9,4.5c1.3,3.1,2.4,6.3,3.5,9.3c2.3,6.7,4.2,12.9,5.8,18.9l0.4,1.6c0.7,2.7,1.3,5.2,1.9,7.8l1.4,7.1l0.5,2
			c0.2,0.6,0.4,1.3,0.6,1.9l0.2,0.6c1.1,2.9,2.7,5.7,4.7,8.2c1.7,2.1,3.7,4,6.1,5.9c3.7,2.8,7.6,5.1,12.4,7.1c1.9,0.8,3.7,1.4,5.5,2
			c-0.6,4.6-1,9.4-1,14.2v215.7h48.9V241.9c15.6,9.6,33.9,15.1,53.5,15.1c56.6,0,102.5-45.9,102.5-102.5c0-6.1-0.6-12-1.6-17.8
			c2.3-1.3,4.4-2.6,6.4-4.2c2.3-1.8,4.3-3.7,6-5.9c2-2.5,3.6-5.3,4.7-8.2l0.2-0.5c0.2-0.6,0.4-1.2,0.6-1.8l1.9-9.1
			c0.5-2.6,1.2-5.1,1.9-7.8l0.4-1.6c1.6-6,3.5-12.2,5.8-18.9c1.1-3,2.2-6.2,3.5-9.4c0.5-1.3,1.1-2.7,1.9-4.4c0.3-0.7,0.7-1.3,1-2
			c0.1-0.2,0.2-0.4,0.3-0.6c1.1-0.6,1.8-1.8,1.9-3.3C388.4,56.8,386.6,54.8,384.4,54.7z M107.7,55.4l-1.1,1.3
			c-0.2-0.1-0.5-0.1-0.8-0.1c0,0,0,0-0.1,0l0.3-2.2C106.6,54.5,107.3,54.9,107.7,55.4z"/>
		<g>
			<path class="st0" d="M70.6,458.5H77v38.7h20v5.8H70.6V458.5z"/>
			<path class="st0" d="M137.4,457.9c6.9,0,12.6,2.2,17.2,6.5c4.6,4.3,6.9,9.8,6.9,16.4c0,6.6-2.3,12-6.9,16.3
				c-4.6,4.3-10.4,6.4-17.4,6.4c-6.7,0-12.3-2.1-16.7-6.4c-4.5-4.3-6.7-9.7-6.7-16.1c0-6.6,2.2-12.1,6.7-16.5
				C124.9,460,130.5,457.9,137.4,457.9z M137.7,463.9c-5.1,0-9.3,1.6-12.5,4.8c-3.3,3.2-4.9,7.2-4.9,12.2c0,4.8,1.6,8.8,4.9,12
				c3.3,3.2,7.4,4.8,12.3,4.8c5,0,9.1-1.6,12.4-4.9c3.3-3.2,5-7.3,5-12.1c0-4.7-1.7-8.7-5-11.9C146.6,465.5,142.5,463.9,137.7,463.9
				z"/>
			<path class="st0" d="M217.6,458.5h6v44.4h-5.5l-29.7-34.2v34.2h-6v-44.4h5.2l30,34.5V458.5z"/>
			<path class="st0" d="M270.2,481h14.9v18.8c-5.5,2.4-10.9,3.6-16.3,3.6c-7.4,0-13.2-2.1-17.6-6.4c-4.4-4.3-6.6-9.6-6.6-15.9
				c0-6.6,2.3-12.2,6.8-16.6c4.6-4.4,10.3-6.6,17.2-6.6c2.5,0,4.9,0.3,7.1,0.8c2.2,0.5,5.1,1.5,8.5,3v6.5
				c-5.3-3.1-10.6-4.6-15.8-4.6c-4.9,0-9,1.7-12.3,5c-3.3,3.3-5,7.4-5,12.2c0,5,1.7,9.2,5,12.4c3.3,3.2,7.6,4.8,12.9,4.8
				c2.5,0,5.6-0.6,9.1-1.8l0.6-0.2v-9.3h-8.6V481z"/>
			<path class="st0" d="M338.8,458.5h6.4v44.4h-6.4v-19.3h-25v19.3h-6.4v-44.4h6.4v19.2h25V458.5z"/>
			<path class="st0" d="M389.8,457.9c6.9,0,12.6,2.2,17.2,6.5c4.6,4.3,6.9,9.8,6.9,16.4c0,6.6-2.3,12-6.9,16.3
				c-4.6,4.3-10.4,6.4-17.4,6.4c-6.7,0-12.3-2.1-16.7-6.4c-4.5-4.3-6.7-9.7-6.7-16.1c0-6.6,2.2-12.1,6.7-16.5
				C377.3,460,382.9,457.9,389.8,457.9z M390.1,463.9c-5.1,0-9.3,1.6-12.5,4.8s-4.9,7.2-4.9,12.2c0,4.8,1.6,8.8,4.9,12
				c3.3,3.2,7.4,4.8,12.3,4.8c5,0,9.1-1.6,12.4-4.9c3.3-3.2,5-7.3,5-12.1c0-4.7-1.7-8.7-5-11.9C399,465.5,394.9,463.9,390.1,463.9z"
				/>
			<path class="st0" d="M434.9,502.9v-44.4H446c4.5,0,8.1,1.1,10.7,3.3c2.6,2.2,4,5.2,4,9c0,2.6-0.6,4.8-1.9,6.7
				c-1.3,1.9-3.2,3.3-5.6,4.2c1.4,0.9,2.8,2.2,4.2,3.8c1.4,1.6,3.3,4.4,5.7,8.4c1.5,2.5,2.8,4.4,3.7,5.7l2.4,3.2h-7.6l-1.9-2.9
				c-0.1-0.1-0.2-0.3-0.4-0.5l-1.2-1.8l-2-3.2l-2.1-3.5c-1.3-1.8-2.5-3.3-3.6-4.4s-2.1-1.9-3-2.3c-0.9-0.5-2.4-0.7-4.4-0.7h-1.7
				v19.3H434.9z M443.1,463.9h-1.9v14h2.4c3.2,0,5.4-0.3,6.6-0.8c1.2-0.6,2.1-1.4,2.8-2.5c0.7-1.1,1-2.4,1-3.8
				c0-1.4-0.4-2.7-1.1-3.8c-0.7-1.1-1.8-1.9-3.1-2.4C448.5,464.1,446.3,463.9,443.1,463.9z"/>
			<path class="st0" d="M522.4,458.5h6v44.4H523l-29.7-34.2v34.2h-6v-44.4h5.2l30,34.5V458.5z"/>
			<path class="st1" d="M89.4,530.4c0,0.9-0.2,1.8-0.5,2.7c-0.3,0.9-0.8,1.7-1.6,2.5c-0.7,0.8-1.7,1.4-2.9,1.9
				c-1.2,0.5-2.7,0.7-4.3,0.7h-5v9.5h-7.6v-25.2h12.6c1.6,0,3.1,0.2,4.3,0.7c1.2,0.5,2.2,1.1,2.9,1.9c0.7,0.8,1.2,1.6,1.6,2.5
				C89.2,528.5,89.4,529.4,89.4,530.4z M81.6,530.4c0-1.2-0.4-2-1.1-2.5c-0.7-0.4-2-0.7-3.8-0.7h-1.6v6.1h1.6c1.3,0,2.2-0.1,2.9-0.2
				c0.7-0.2,1.2-0.5,1.5-0.9C81.5,531.8,81.6,531.2,81.6,530.4z"/>
			<path class="st1" d="M127.7,547.7h-7.6v-9.8h-11.4v9.8H101v-25.2h7.6v9.3h11.4v-9.3h7.6V547.7z"/>
			<path class="st1" d="M163.3,530.4c0,0.9-0.2,1.8-0.5,2.7c-0.3,0.9-0.8,1.7-1.6,2.5c-0.7,0.8-1.7,1.4-2.9,1.9
				c-1.2,0.5-2.7,0.7-4.3,0.7h-5v9.5h-7.6v-25.2h12.6c1.6,0,3.1,0.2,4.3,0.7c1.2,0.5,2.2,1.1,2.9,1.9c0.7,0.8,1.2,1.6,1.6,2.5
				C163.2,528.5,163.3,529.4,163.3,530.4z M155.6,530.4c0-1.2-0.4-2-1.1-2.5c-0.7-0.4-2-0.7-3.8-0.7h-1.6v6.1h1.6
				c1.3,0,2.2-0.1,2.9-0.2c0.7-0.2,1.2-0.5,1.5-0.9C155.4,531.8,155.6,531.2,155.6,530.4z"/>
			<path class="st1" d="M216.1,545.8c-1,0.5-2.1,1-3.2,1.3c-1.1,0.3-2.2,0.6-3.3,0.7c-1.1,0.1-2.3,0.2-3.4,0.2
				c-2.2,0-4.2-0.3-5.9-0.9c-1.7-0.6-3.3-1.5-4.5-2.7c-1.3-1.2-2.2-2.6-2.9-4.2c-0.6-1.6-1-3.3-1-5.2c0-2.2,0.4-4.1,1.1-5.7
				c0.8-1.6,1.8-3,3.2-4.1c1.4-1.1,2.9-1.9,4.6-2.4c1.7-0.5,3.6-0.8,5.5-0.8c2.9,0,6.1,0.6,9.7,1.9v6.7c-1.3-0.8-2.5-1.4-3.7-1.9
				c-1.2-0.5-2.7-0.8-4.3-0.8c-1.5,0-2.8,0.3-4.1,0.9c-1.3,0.6-2.3,1.4-3.1,2.5c-0.8,1.1-1.2,2.3-1.2,3.8c0,1.3,0.3,2.4,1,3.5
				c0.7,1.1,1.6,1.9,2.8,2.5c1.2,0.6,2.6,0.9,4.1,0.9c1.2,0,2.4-0.1,3.5-0.4c1.1-0.3,2-0.6,2.8-1c0.7-0.4,1.5-0.8,2.3-1.3V545.8z"/>
			<path class="st1" d="M255.1,535c0,2.4-0.5,4.5-1.6,6.5c-1.1,2-2.7,3.6-4.9,4.7c-2.1,1.2-4.8,1.7-7.8,1.7c-3.1,0-5.8-0.6-7.9-1.8
				c-2.2-1.2-3.8-2.8-4.8-4.8c-1-2-1.6-4.1-1.6-6.4c0-2.3,0.5-4.4,1.6-6.4c1-2,2.6-3.6,4.8-4.8c2.2-1.2,4.8-1.8,7.9-1.8
				c2.3,0,4.4,0.3,6.2,1c1.8,0.7,3.3,1.6,4.5,2.8c1.2,1.2,2.1,2.6,2.7,4.1S255.1,533.3,255.1,535z M247.4,535c0-0.9-0.1-1.8-0.4-2.6
				c-0.3-0.8-0.7-1.5-1.3-2c-0.6-0.6-1.3-1-2.1-1.3c-0.8-0.3-1.8-0.5-2.8-0.5c-2,0-3.6,0.6-4.8,1.8c-1.2,1.2-1.7,2.7-1.7,4.7
				s0.6,3.5,1.8,4.7c1.2,1.2,2.8,1.8,4.8,1.8c1.4,0,2.6-0.3,3.6-0.8c1-0.6,1.7-1.3,2.2-2.3C247.1,537.4,247.4,536.3,247.4,535z"/>
			<path class="st1" d="M294.2,547.7h-6.8l-13.1-14.1v14.1h-7.5v-25.2h6.8l13,14v-14h7.6V547.7z"/>
			<path class="st1" d="M326.1,537.5h-10.5v10.2H308v-25.2h18.1v5.1h-10.5v4.9h10.5V537.5z"/>
			<path class="st1" d="M357.7,547.7h-19v-25.2h18.7v5.1h-11.1v4.6h10.6v5.1h-10.6v5.4h11.4V547.7z"/>
			<path class="st1" d="M394.6,547.7h-8.2l-2-4.5c-0.7-1.6-1.4-2.8-2-3.6c-0.6-0.8-1.2-1.2-1.7-1.5c-0.6-0.2-1.3-0.3-2.1-0.3h-0.9
				v9.8h-7.6v-25.2h12.9c2.1,0,3.8,0.4,5.1,1.3c1.3,0.8,2.3,1.9,2.9,3.1c0.6,1.2,0.9,2.4,0.9,3.5c0,1.3-0.2,2.4-0.7,3.2
				c-0.5,0.9-1,1.5-1.6,1.9c-0.5,0.4-1.2,0.8-1.8,1.1c0.8,0.5,1.5,1,2,1.7c0.5,0.6,1.2,2,2.2,3.9L394.6,547.7z M384.3,530.4
				c0-1.2-0.4-2-1.1-2.4c-0.8-0.5-2-0.7-3.7-0.7h-1.6v6.1h1.6c1.9,0,3.1-0.2,3.8-0.6C384,532.3,384.3,531.6,384.3,530.4z"/>
			<path class="st1" d="M424.6,547.7h-19v-25.2h18.7v5.1h-11.1v4.6h10.6v5.1h-10.6v5.4h11.4V547.7z"/>
			<path class="st1" d="M464.5,547.7h-6.8l-13.1-14.1v14.1h-7.5v-25.2h6.8l13,14v-14h7.6V547.7z"/>
			<path class="st1" d="M500.9,545.8c-1,0.5-2.1,1-3.2,1.3c-1.1,0.3-2.2,0.6-3.3,0.7c-1.1,0.1-2.3,0.2-3.4,0.2
				c-2.2,0-4.2-0.3-5.9-0.9c-1.7-0.6-3.3-1.5-4.5-2.7c-1.3-1.2-2.2-2.6-2.9-4.2c-0.6-1.6-1-3.3-1-5.2c0-2.2,0.4-4.1,1.1-5.7
				c0.8-1.6,1.8-3,3.2-4.1c1.4-1.1,2.9-1.9,4.6-2.4c1.7-0.5,3.6-0.8,5.5-0.8c2.9,0,6.1,0.6,9.7,1.9v6.7c-1.3-0.8-2.5-1.4-3.7-1.9
				c-1.2-0.5-2.7-0.8-4.3-0.8c-1.5,0-2.8,0.3-4.1,0.9c-1.3,0.6-2.3,1.4-3.1,2.5c-0.8,1.1-1.2,2.3-1.2,3.8c0,1.3,0.3,2.4,1,3.5
				c0.7,1.1,1.6,1.9,2.8,2.5c1.2,0.6,2.6,0.9,4.1,0.9c1.2,0,2.4-0.1,3.5-0.4c1.1-0.3,2-0.6,2.8-1c0.7-0.4,1.5-0.8,2.3-1.3V545.8z"/>
			<path class="st1" d="M532.5,547.7h-19v-25.2h18.7v5.1h-11.1v4.6h10.6v5.1h-10.6v5.4h11.4V547.7z"/>
		</g>
		<path class="st1" d="M374.9,119.3c3.2,11.2,4.9,23,4.9,35.2c0,71.2-57.7,128.8-128.8,128.8c-3.6,0-7.2-0.2-10.7-0.5v89.3h53.6
			c0-0.6-0.1-1.1-0.1-1.7c0-18.9,15.3-34.2,34.2-34.2s34.2,15.3,34.2,34.2c0,0.6-0.1,1.2-0.1,1.7h53.6V119.3H374.9z"/>
		<path class="st2" d="M209.8,266c-3.2,2-6.1,3.5-9.2,5.1c-3.1,1.6-6.2,3-9.4,4.4c-3.2,1.3-6.5,2.5-9.9,3.4
			c-3.3,0.8-7.1,1.5-10.3,0.5c3-1.2,5-3.5,6.9-5.9c1.9-2.4,3.5-5,5-7.7c1.5-2.7,2.9-5.4,4.2-8.2c1.3-2.7,2.6-5.7,3.5-8.3
			c2.5-7.1,10.2-10.9,17.3-8.4c7.1,2.5,10.9,10.2,8.4,17.3c-1.1,3-3.1,5.5-5.6,7.1L209.8,266z"/>
		<path class="st0" d="M174.5,282.9c-1.5,0-2.9-0.2-4.4-0.6l-8.4-2.5l8.2-3.3c2.3-0.9,3.9-2.7,5.7-5c1.6-2,3.1-4.4,4.7-7.3
			c1.4-2.5,2.8-5.2,4.1-8c1.2-2.5,2.5-5.5,3.4-8c1.5-4.2,4.5-7.6,8.5-9.5c4-1.9,8.5-2.2,12.7-0.7c8.7,3,13.3,12.5,10.3,21.2
			c-1.2,3.6-3.7,6.6-6.9,8.6l-1.1,0.7c-3.2,2-6.1,3.5-9.5,5.3c-3.3,1.6-6.5,3.1-9.6,4.5c-3.8,1.6-7.1,2.7-10.3,3.5
			C179.8,282.4,177.2,282.9,174.5,282.9z M203.6,243.2c-1.6,0-3.1,0.4-4.6,1.1c-2.5,1.2-4.4,3.4-5.4,6c-1,2.8-2.4,5.9-3.7,8.6
			c-1.4,2.9-2.8,5.7-4.3,8.4c-1.8,3.2-3.5,5.7-5.2,8c-0.2,0.2-0.4,0.5-0.6,0.7c0.3-0.1,0.5-0.1,0.8-0.2c2.8-0.7,5.9-1.8,9.4-3.3
			c3-1.2,6.1-2.7,9.2-4.3c3.3-1.7,6-3.1,9-5l0,0l1.1-0.7c2-1.3,3.5-3.2,4.3-5.5c1.9-5.5-1-11.5-6.5-13.4
			C205.9,243.4,204.8,243.2,203.6,243.2z"/>
		<path class="st0" d="M491.6,197.8c0,36-23.6,66.4-56.1,76.8v-31.7c15.9-8.7,26.8-25.6,26.8-45s-10.8-36.3-26.8-45v-31.7
			C468,131.4,491.6,161.8,491.6,197.8z"/>
		<polygon class="st2" points="201.6,175.9 192.9,180.5 194.6,170.7 187.5,163.8 197.3,162.4 201.6,153.5 206,162.4 215.8,163.8 
			208.7,170.7 210.4,180.5 		"/>
		<polyline class="st0" points="109.1,58.8 108.8,55.1 106,53.7 104.6,55.3 104.4,58.5 		"/>
		<path class="st2" d="M371,75.2c-4,5.3-7.9,11.2-11.4,17.5c-1.8,3.1-3.4,6.3-4.8,9.4c-0.7,1.5-1.5,3.1-2.1,4.8l-1.3,3.3l-0.4,0.5
			c-0.2,0.3-0.3,0.4-0.5,0.6l-0.2,0.2c-1.2,1.2-2.7,2.2-4.9,3.2c-1.8,0.9-4.1,1.6-7.6,2.4c-2.6,0.6-5.5,1-8.9,1.4
			c-2.8,0.3-5.8,0.6-9.4,0.7c-6.3,0.3-12.9,0.3-19.5,0.2c-3.6,0.1-7.3-0.1-10.9-0.2c-3-0.1-6.1-0.1-9.2-0.2c-3.3-0.1-6.7,0-10.5,0
			c0,0-5.9,14.8-0.6,23.1c0.1,0,0.3,0,0.4,0c0.3,0,0.7,0,1,0c1.8-0.1,3.8-0.1,5.9-0.1c1.3,0,2.6,0,3.9-0.1c5.9,0,12.5-0.2,20.7-0.6
			c6.2-0.4,13.6-1,21.1-2.3c6.3-1.1,13.9-2.6,21.7-5.8c4.2-1.7,7.6-3.7,10.8-6.1c1.9-1.5,3.5-3.1,4.9-4.8c1.5-1.9,2.8-4.1,3.6-6.3
			l0.2-0.5c0.1-0.4,0.3-0.8,0.4-1.1l0.4-1.6l1.4-7.2c0.6-2.7,1.3-5.5,1.9-8.1l0.4-1.6c1.6-6.2,3.6-12.5,5.9-19.4
			c0.8-2.4,1.7-4.8,2.7-7.3C374.2,71.2,372.5,73.2,371,75.2z"/>
		<g>
			<path class="st2" d="M106.6,56.7c-0.2-0.1-0.5-0.1-0.8-0.1c0,0,0,0-0.1,0l-0.2,1.4L106.6,56.7z"/>
			<path class="st2" d="M152.1,115.9c-3.5-0.8-5.8-1.6-7.6-2.4c-2.2-1-3.7-2.1-4.9-3.3l-0.2-0.2c-0.1-0.1-0.3-0.3-0.5-0.6l-0.3-0.5
				l-0.4-0.9l-1-2.5c-0.7-1.6-1.4-3.2-2.1-4.8c-1.4-3-3-6.2-4.8-9.3c-3.6-6.3-7.4-12.2-11.4-17.4c-1.2-1.6-2.5-3.3-3.9-4.8
				c0.7,2,1.4,3.9,2.1,5.8c2.4,6.9,4.3,13.2,6,19.4l0.4,1.6c0.7,2.6,1.4,5.4,1.9,8.1l1.8,8.8c0.1,0.4,0.2,0.8,0.4,1.2l0.2,0.6
				c0.8,2.1,2,4.2,3.5,6.1c1.4,1.7,3,3.2,4.9,4.7c3.1,2.4,6.5,4.4,10.7,6.1c1.4,0.6,2.7,1.1,4.1,1.5c1.2-5.7,2.9-11.2,5-16.5
				C154.4,116.4,153.2,116.2,152.1,115.9z"/>
		</g>
	</g>
</g>
</svg>
